<svg id="visual" viewBox="0 0 960 540" width="960" height="540" xmlns="http://www.w3.org/2000/svg" xmlns:xlink="http://www.w3.org/1999/xlink" version="1.1"><rect x="0" y="0" width="960" height="540" fill="#AACFD0"></rect><path d="M0 198L32 194.7C64 191.3 128 184.7 192 194.2C256 203.7 320 229.3 384 228C448 226.7 512 198.3 576 185C640 171.7 704 173.3 768 185C832 196.7 896 218.3 928 229.2L960 240L960 541L928 541C896 541 832 541 768 541C704 541 640 541 576 541C512 541 448 541 384 541C320 541 256 541 192 541C128 541 64 541 32 541L0 541Z" fill="#90bcc0"></path><path d="M0 332L32 316.7C64 301.3 128 270.7 192 255.5C256 240.3 320 240.7 384 254.5C448 268.3 512 295.7 576 306.5C640 317.3 704 311.7 768 297.8C832 284 896 262 928 251L960 240L960 541L928 541C896 541 832 541 768 541C704 541 640 541 576 541C512 541 448 541 384 541C320 541 256 541 192 541C128 541 64 541 32 541L0 541Z" fill="#6ea9ac"></path><path d="M0 317L32 322.2C64 327.3 128 337.7 192 339.8C256 342 320 336 384 330.7C448 325.3 512 320.7 576 332.7C640 344.7 704 373.3 768 380.7C832 388 896 374 928 367L960 360L960 541L928 541C896 541 832 541 768 541C704 541 640 541 576 541C512 541 448 541 384 541C320 541 256 541 192 541C128 541 64 541 32 541L0 541Z" fill="#559193"></path><path d="M0 442L32 440.2C64 438.3 128 434.7 192 430.2C256 425.7 320 420.3 384 425.8C448 431.3 512 447.7 576 448.2C640 448.7 704 433.3 768 430.2C832 427 896 436 928 440.5L960 445L960 541L928 541C896 541 832 541 768 541C704 541 640 541 576 541C512 541 448 541 384 541C320 541 256 541 192 541C128 541 64 541 32 541L0 541Z" fill="#447577"></path></svg>